<?xml version="1.0" encoding="UTF-8"?>
<svg xmlns="http://www.w3.org/2000/svg" width="300" height="113" viewBox="0 0 300 113" fill="none">
  <path d="M52.332 0.16449L51.708 0.60749C36.86 11.2165 28.25 27.1725 28.073 44.3855C27.899 61.6015 36.189 77.6975 50.823 88.5545L51.439 89.0065L51.168 88.2895C46.182 75.0375 43.634 59.8975 43.785 44.5185C43.946 29.1345 46.799 14.0425 52.046 0.87349L52.332 0.16449Z" fill="#D84B9A"></path>
  <path d="M49.8381 89.5255C40.6321 83.5085 32.0051 75.4095 24.8941 66.1015C17.7801 56.7915 12.4251 46.5985 9.41111 36.6265L9.20711 35.9425L8.98211 36.6265C5.01811 48.8525 7.32011 61.8535 15.2921 72.2915C23.2651 82.7175 35.8071 89.1545 49.7041 89.9375L50.5421 89.9865L49.8381 89.5255Z" fill="#7C51A0"></path>
  <path d="M48.846 91.3135C40.591 91.1595 31.734 89.5265 23.231 86.5935C14.745 83.6605 6.92 79.5295 0.602 74.6435L0 74.1805L0.256 74.8935C3.379 83.7895 10.637 90.7835 20.173 94.0785C23.949 95.3815 27.9 96.0435 31.903 96.0435C37.886 96.0435 43.783 94.5545 48.951 91.7315L49.696 91.3295L48.846 91.3135Z" fill="#007DC4"></path>
  <path d="M49.3269 93.1955C44.4069 96.3125 38.4679 98.7875 32.1539 100.352C27.0859 101.609 22.0199 102.248 17.0919 102.248C15.8409 102.248 14.5919 102.205 13.3789 102.122L12.5459 102.06L13.2399 102.533C17.3609 105.304 22.4219 106.828 27.5059 106.828C29.6289 106.828 31.7529 106.567 33.8249 106.055C40.9519 104.284 46.7209 99.7035 49.6529 93.4805L49.9809 92.7865L49.3269 93.1955Z" fill="#53B6E7"></path>
  <path d="M81.5312 40.2795H73.9492C73.7812 39.4325 73.6982 38.5435 73.6982 37.6075C73.6982 36.7345 73.7812 35.8705 73.9492 35.0245H95.3392C95.5112 35.8705 95.5972 36.7345 95.5972 37.6075C95.5972 38.5435 95.5112 39.4325 95.3392 40.2795H87.7572V65.4825C87.2512 65.5365 86.7382 65.5865 86.2362 65.6295C85.7252 65.6715 85.2322 65.6935 84.7502 65.6935C84.2692 65.6935 83.7562 65.6775 83.2082 65.6455C82.6542 65.6215 82.0992 65.5655 81.5312 65.4815V40.2795Z" fill="#231F20"></path>
  <path d="M95.5962 43.5815C96.0182 43.4965 96.4202 43.4355 96.8022 43.3905C97.1852 43.3495 97.6012 43.3275 98.0552 43.3275C98.4762 43.3275 98.8902 43.3545 99.3012 43.4125C99.7132 43.4695 100.113 43.5385 100.506 43.6255C100.594 43.7685 100.669 43.9715 100.739 44.2385C100.813 44.5045 100.88 44.7865 100.931 45.0855C100.985 45.3825 101.039 45.6785 101.081 45.9725C101.121 46.2695 101.159 46.5195 101.188 46.7165C101.81 45.8375 102.572 45.0545 103.474 44.3665C104.374 43.6735 105.509 43.3265 106.865 43.3265C107.144 43.3265 107.467 43.3405 107.836 43.3685C108.204 43.3985 108.473 43.4405 108.639 43.4945C108.699 43.7785 108.741 44.1015 108.772 44.4695C108.795 44.8375 108.81 45.2175 108.81 45.6155C108.81 46.0945 108.792 46.6145 108.747 47.1815C108.706 47.7465 108.627 48.2845 108.515 48.7905C108.205 48.7315 107.861 48.7065 107.48 48.7065H106.778C106.299 48.7065 105.76 48.7555 105.17 48.8525C104.576 48.9555 104.012 49.2145 103.477 49.6395C102.936 50.0645 102.497 50.6975 102.139 51.5445C101.787 52.3935 101.614 53.5775 101.614 55.1035V65.5225C101.103 65.6085 100.595 65.6665 100.087 65.6935C99.5782 65.7225 99.0852 65.7365 98.6072 65.7365C98.1252 65.7365 97.6362 65.7225 97.1442 65.6935C96.6512 65.6665 96.1372 65.6085 95.5982 65.5225V43.5815H95.5962Z" fill="#231F20"></path>
  <path d="M122.915 51.0805C122.915 50.4015 122.807 49.8515 122.577 49.4295C122.353 49.0055 122.044 48.6715 121.647 48.4345C121.249 48.1895 120.764 48.0305 120.184 47.9475C119.606 47.8615 118.967 47.8165 118.254 47.8165C116.732 47.8165 115.107 48.1155 113.386 48.7095C112.99 47.9735 112.694 47.2825 112.498 46.6335C112.299 45.9835 112.199 45.2085 112.199 44.3035C113.443 43.8815 114.681 43.5725 115.929 43.3685C117.17 43.1795 118.328 43.0765 119.398 43.0765C122.336 43.0765 124.633 43.7805 126.284 45.1895C127.937 46.6065 128.763 48.8645 128.763 51.9705V64.6785C127.775 64.9875 126.577 65.2865 125.162 65.5655C123.75 65.8495 122.15 65.9925 120.374 65.9925C118.935 65.9925 117.611 65.8635 116.411 65.6105C115.214 65.3545 114.181 64.9335 113.317 64.3405C112.458 63.7485 111.796 62.9865 111.33 62.0515C110.866 61.1195 110.634 59.9765 110.634 58.6215C110.634 57.2625 110.919 56.1285 111.5 55.2095C112.079 54.2945 112.825 53.5565 113.743 53.0085C114.663 52.4555 115.686 52.0625 116.818 51.8215C117.944 51.5845 119.075 51.4615 120.206 51.4615C121.022 51.4615 121.929 51.5025 122.913 51.5885V51.0805H122.915ZM122.915 55.4425C122.577 55.3895 122.21 55.3375 121.815 55.2955C121.418 55.2545 121.069 55.2325 120.758 55.2325C119.373 55.2325 118.279 55.4785 117.473 55.9725C116.668 56.4675 116.266 57.2625 116.266 58.3655C116.266 59.1005 116.42 59.6655 116.732 60.0605C117.042 60.4565 117.417 60.7475 117.852 60.9285C118.291 61.1115 118.758 61.2255 119.252 61.2675C119.746 61.3115 120.18 61.3305 120.541 61.3305C120.969 61.3305 121.391 61.2955 121.814 61.2255C122.239 61.1575 122.603 61.0935 122.914 61.0355L122.915 55.4425Z" fill="#231F20"></path>
  <path d="M130.711 43.6255C131.392 43.4825 132.021 43.3975 132.597 43.3685C133.175 43.3415 133.678 43.3285 134.102 43.3285C134.669 43.3285 135.231 43.3415 135.796 43.3685C136.363 43.3975 136.885 43.4695 137.363 43.5805L142.149 59.8905L146.854 43.5805C147.33 43.4965 147.839 43.4365 148.374 43.3915C148.91 43.3495 149.449 43.3285 149.988 43.3285C150.41 43.3285 150.896 43.3415 151.448 43.3685C151.997 43.3975 152.622 43.4825 153.33 43.6255L145.031 65.4835C144.493 65.5645 143.93 65.6235 143.332 65.6485C142.745 65.6795 142.246 65.6945 141.852 65.6945C141.427 65.6945 140.951 65.6795 140.414 65.6485C139.874 65.6235 139.369 65.5525 138.89 65.4375L130.711 43.6255Z" fill="#231F20"></path>
  <path d="M167.228 51.0805C167.228 50.4015 167.109 49.8515 166.887 49.4295C166.66 49.0055 166.35 48.6715 165.952 48.4345C165.558 48.1895 165.073 48.0305 164.49 47.9475C163.915 47.8615 163.273 47.8165 162.565 47.8165C161.04 47.8165 159.418 48.1155 157.695 48.7095C157.296 47.9735 157.005 47.2825 156.804 46.6335C156.604 45.9835 156.512 45.2085 156.512 44.3035C157.749 43.8815 158.991 43.5725 160.238 43.3685C161.474 43.1795 162.639 43.0765 163.709 43.0765C166.647 43.0765 168.941 43.7805 170.594 45.1895C172.249 46.6065 173.072 48.8645 173.072 51.9705V64.6785C172.085 64.9875 170.883 65.2865 169.471 65.5655C168.058 65.8495 166.463 65.9925 164.685 65.9925C163.245 65.9925 161.924 65.8635 160.723 65.6105C159.524 65.3545 158.494 64.9335 157.632 64.3405C156.773 63.7485 156.107 62.9865 155.643 62.0515C155.175 61.1195 154.942 59.9765 154.942 58.6215C154.942 57.2625 155.232 56.1285 155.81 55.2095C156.388 54.2945 157.137 53.5565 158.056 53.0085C158.972 52.4555 159.994 52.0625 161.126 51.8215C162.256 51.5845 163.383 51.4615 164.511 51.4615C165.334 51.4615 166.239 51.5025 167.228 51.5885V51.0805ZM167.228 55.4425C166.887 55.3895 166.523 55.3375 166.128 55.2955C165.726 55.2545 165.377 55.2325 165.066 55.2325C163.679 55.2325 162.587 55.4785 161.783 55.9725C160.974 56.4675 160.577 57.2625 160.577 58.3655C160.577 59.1005 160.728 59.6655 161.04 60.0605C161.353 60.4565 161.724 60.7475 162.163 60.9285C162.6 61.1115 163.065 61.2255 163.563 61.2675C164.052 61.3115 164.484 61.3305 164.852 61.3305C165.273 61.3305 165.698 61.2955 166.127 61.2255C166.547 61.1575 166.914 61.0935 167.227 61.0355L167.228 55.4425Z" fill="#231F20"></path>
  <path d="M178.197 43.5815C178.596 43.4965 178.986 43.4355 179.381 43.3905C179.778 43.3495 180.219 43.3275 180.697 43.3275C181.173 43.3275 181.6 43.3485 181.969 43.3905C182.332 43.4355 182.712 43.4955 183.113 43.5815C183.192 43.7215 183.275 43.9325 183.343 44.1975C183.413 44.4655 183.477 44.7465 183.531 45.0445C183.591 45.3405 183.639 45.6295 183.68 45.9125C183.726 46.1955 183.757 46.4335 183.784 46.6335C184.068 46.2115 184.405 45.7845 184.804 45.3635C185.195 44.9395 185.656 44.5565 186.179 44.2205C186.7 43.8815 187.29 43.6045 187.936 43.3915C188.588 43.1805 189.304 43.0775 190.096 43.0775C192.584 43.0775 194.454 43.7545 195.711 45.1075C196.966 46.4645 197.598 48.5975 197.598 51.5035V65.4845C196.58 65.6495 195.577 65.7385 194.59 65.7385C193.599 65.7385 192.595 65.6495 191.581 65.4845V53.1165C191.581 51.5885 191.346 50.4165 190.882 49.5985C190.414 48.7795 189.604 48.3695 188.449 48.3695C187.966 48.3695 187.47 48.4405 186.961 48.5795C186.455 48.7255 185.996 48.9965 185.59 49.4045C185.177 49.8155 184.842 50.3895 184.593 51.1225C184.337 51.8575 184.212 52.8145 184.212 54.0035V65.4835C183.191 65.6485 182.195 65.7375 181.203 65.7375C180.217 65.7375 179.212 65.6485 178.195 65.4835V43.5815H178.197Z" fill="#231F20"></path>
  <path d="M217.548 60.3155C217.886 60.8785 218.169 61.5375 218.396 62.2855C218.624 63.0315 218.737 63.9185 218.737 64.9335C217.602 65.3825 216.549 65.6735 215.559 65.7985C214.568 65.9275 213.542 65.9925 212.467 65.9925C210.634 65.9925 209.037 65.6985 207.678 65.1235C206.326 64.5435 205.202 63.7475 204.316 62.7305C203.426 61.7105 202.753 60.5015 202.302 59.1055C201.848 57.7085 201.625 56.1905 201.625 54.5485C201.625 52.9415 201.84 51.4445 202.28 50.0625C202.718 48.6795 203.381 47.4645 204.271 46.4175C205.158 45.3735 206.266 44.5545 207.596 43.9625C208.92 43.3665 210.457 43.0745 212.212 43.0745C212.833 43.0745 213.401 43.0885 213.925 43.1145C214.448 43.1445 214.951 43.1975 215.43 43.2825C215.914 43.3665 216.393 43.4785 216.87 43.6245C217.353 43.7665 217.885 43.9475 218.483 44.1735C218.483 44.8245 218.394 45.5485 218.223 46.3535C218.054 47.1615 217.788 47.9285 217.417 48.6635C216.572 48.3825 215.834 48.1855 215.194 48.0895C214.563 47.9905 213.832 47.9455 213.013 47.9455C211.264 47.9455 209.943 48.5135 209.055 49.6565C208.164 50.8035 207.721 52.4315 207.721 54.5485C207.721 56.8375 208.202 58.5055 209.16 59.5495C210.12 60.5955 211.42 61.1185 213.057 61.1185C213.484 61.1185 213.868 61.1095 214.222 61.0975C214.571 61.0835 214.919 61.0465 215.257 60.9925C215.595 60.9365 215.942 60.8465 216.298 60.7365C216.65 60.6265 217.071 60.4855 217.548 60.3155Z" fill="#231F20"></path>
  <path d="M231.399 65.9935C229.621 65.9935 228.077 65.6995 226.764 65.1245C225.452 64.5445 224.36 63.7425 223.498 62.7075C222.636 61.6785 221.987 60.4745 221.553 59.0835C221.112 57.7025 220.896 56.2035 220.896 54.5955C220.896 52.9895 221.112 51.4805 221.553 50.0635C221.988 48.6505 222.636 47.4315 223.498 46.4005C224.359 45.3675 225.452 44.5565 226.764 43.9645C228.077 43.3685 229.62 43.0775 231.399 43.0775C233.178 43.0775 234.733 43.3695 236.06 43.9645C237.39 44.5565 238.491 45.3675 239.364 46.4005C240.239 47.4315 240.888 48.6505 241.311 50.0635C241.737 51.4805 241.944 52.9895 241.944 54.5955C241.944 56.2035 241.737 57.7025 241.311 59.0835C240.888 60.4745 240.239 61.6785 239.364 62.7075C238.491 63.7425 237.39 64.5445 236.06 65.1245C234.733 65.6995 233.178 65.9935 231.399 65.9935ZM231.399 61.4175C232.976 61.4175 234.118 60.8295 234.808 59.6585C235.5 58.4875 235.849 56.7995 235.849 54.5955C235.849 52.3955 235.5 50.7055 234.808 49.5325C234.118 48.3615 232.976 47.7785 231.399 47.7785C229.847 47.7785 228.722 48.3615 228.037 49.5325C227.339 50.7055 226.996 52.3945 226.996 54.5955C226.996 56.7995 227.339 58.4885 228.037 59.6585C228.723 60.8295 229.848 61.4175 231.399 61.4175Z" fill="#231F20"></path>
  <path d="M246.477 43.5815C246.906 43.4965 247.308 43.4355 247.688 43.3905C248.074 43.3495 248.484 43.3275 248.939 43.3275C249.361 43.3275 249.776 43.3545 250.185 43.4125C250.593 43.4695 250.996 43.5385 251.396 43.6255C251.484 43.7685 251.557 43.9715 251.628 44.2385C251.697 44.5045 251.76 44.7865 251.819 45.0855C251.873 45.3825 251.921 45.6785 251.965 45.9725C252.004 46.2695 252.041 46.5195 252.07 46.7165C252.697 45.8375 253.462 45.0545 254.357 44.3665C255.262 43.6735 256.386 43.3265 257.746 43.3265C258.027 43.3265 258.356 43.3405 258.721 43.3685C259.086 43.3985 259.36 43.4405 259.525 43.4945C259.583 43.7785 259.627 44.1015 259.653 44.4695C259.681 44.8375 259.697 45.2175 259.697 45.6155C259.697 46.0945 259.675 46.6145 259.631 47.1815C259.59 47.7465 259.513 48.2845 259.404 48.7905C259.087 48.7315 258.744 48.7065 258.363 48.7065H257.662C257.183 48.7065 256.649 48.7555 256.056 48.8525C255.46 48.9555 254.893 49.2145 254.359 49.6395C253.821 50.0645 253.378 50.6975 253.023 51.5445C252.671 52.3935 252.499 53.5775 252.499 55.1035V65.5225C251.985 65.6085 251.485 65.6665 250.971 65.6935C250.465 65.7225 249.967 65.7365 249.49 65.7365C249.011 65.7365 248.523 65.7225 248.031 65.6935C247.535 65.6665 247.013 65.6085 246.479 65.5225V43.5815H246.477Z" fill="#231F20"></path>
  <path d="M267.447 56.3745C267.558 58.0695 268.154 59.2965 269.229 60.0595C270.301 60.8265 271.71 61.2035 273.462 61.2035C274.424 61.2035 275.402 61.1115 276.404 60.9305C277.408 60.7475 278.364 60.4875 279.267 60.1475C279.578 60.7125 279.845 61.3895 280.07 62.1785C280.294 62.9715 280.421 63.8205 280.454 64.7235C278.248 65.5685 275.76 65.9935 272.995 65.9935C270.962 65.9935 269.217 65.7115 267.763 65.1465C266.306 64.5815 265.122 63.7985 264.205 62.7935C263.292 61.7915 262.606 60.5985 262.173 59.2135C261.735 57.8305 261.519 56.3195 261.519 54.6845C261.519 53.0735 261.746 51.5625 262.196 50.1505C262.649 48.7355 263.317 47.5075 264.206 46.4655C265.101 45.4205 266.201 44.5965 267.511 43.9855C268.825 43.3795 270.355 43.0785 272.107 43.0785C273.634 43.0785 274.99 43.3445 276.175 43.8825C277.361 44.4195 278.37 45.1505 279.203 46.0855C280.033 47.0175 280.668 48.1245 281.084 49.4085C281.511 50.6925 281.723 52.0725 281.723 53.5425C281.723 54.0755 281.702 54.6035 281.66 55.1275C281.616 55.6485 281.57 56.0675 281.511 56.3765H267.447V56.3745ZM276.047 52.1815C275.992 50.8255 275.616 49.7325 274.923 48.8965C274.235 48.0645 273.26 47.6505 272.026 47.6505C270.606 47.6505 269.542 48.0455 268.806 48.8325C268.067 49.6275 267.631 50.7415 267.488 52.1825L276.047 52.1815Z" fill="#231F20"></path>
  <path d="M75.1768 71.9435C75.3488 71.9145 75.6138 71.8915 75.9848 71.8795C76.3488 71.8665 76.6858 71.8555 77.0018 71.8555C77.3098 71.8555 77.6488 71.8675 78.0168 71.8795C78.3818 71.8925 78.6678 71.9145 78.8648 71.9435L87.3738 92.2305L95.8078 71.9435C95.9768 71.9145 96.2548 71.8915 96.6338 71.8795C97.0128 71.8675 97.3458 71.8555 97.6278 71.8555C97.9098 71.8555 98.2328 71.8675 98.6048 71.8795C98.9668 71.8925 99.2528 71.9145 99.4518 71.9435L100.932 102.396C100.734 102.43 100.506 102.446 100.258 102.464C100.001 102.478 99.7418 102.482 99.4948 102.482C99.2108 102.482 98.9338 102.478 98.6658 102.464C98.3978 102.445 98.1808 102.43 98.0108 102.396L96.8658 76.4775L88.4768 96.0825C88.2798 96.1445 88.0858 96.1725 87.8898 96.1725H87.2948H86.7178C86.5348 96.1725 86.3468 96.1445 86.1488 96.0825L77.8458 76.4325L76.6178 102.396C76.4188 102.43 76.1948 102.446 75.9408 102.464C75.6868 102.478 75.4328 102.482 75.1758 102.482C74.8918 102.482 74.6198 102.478 74.3488 102.464C74.0808 102.445 73.8638 102.43 73.6968 102.396L75.1768 71.9435Z" fill="#231F20"></path>
  <path d="M109.021 92.0185C109.021 94.8975 109.688 97.0215 111.015 98.3725C112.342 99.7295 114.332 100.406 116.986 100.406C118.059 100.406 119.057 100.314 119.973 100.132C120.892 99.9475 121.786 99.7025 122.665 99.3915C122.806 99.7035 122.914 100.081 123.002 100.538C123.087 100.986 123.143 101.393 123.171 101.762C122.354 102.129 121.391 102.41 120.289 102.61C119.186 102.811 117.988 102.911 116.687 102.911C114.824 102.911 113.219 102.632 111.88 102.084C110.542 101.53 109.441 100.763 108.58 99.7725C107.716 98.7875 107.079 97.6055 106.669 96.2385C106.261 94.8655 106.056 93.3655 106.056 91.7245C106.056 90.1385 106.247 88.6575 106.63 87.2765C107.009 85.8915 107.587 84.6805 108.366 83.6335C109.141 82.5875 110.137 81.7705 111.352 81.1765C112.567 80.5835 114.02 80.2885 115.717 80.2885C117.127 80.2885 118.384 80.5265 119.485 81.0025C120.588 81.4865 121.509 82.1585 122.256 83.0185C123.003 83.8805 123.57 84.9135 123.951 86.1115C124.334 87.3115 124.523 88.6195 124.523 90.0295C124.523 90.2875 124.517 90.6105 124.502 91.0035C124.488 91.3985 124.467 91.7415 124.439 92.0195L109.021 92.0185ZM121.734 89.6915C121.734 88.8195 121.62 87.9555 121.391 87.1035C121.165 86.2575 120.815 85.5175 120.333 84.8815C119.852 84.2465 119.232 83.7305 118.468 83.3375C117.704 82.9435 116.791 82.7435 115.719 82.7435C113.738 82.7435 112.201 83.3515 111.099 84.5645C109.996 85.7785 109.331 87.4855 109.108 89.6905L121.734 89.6915Z" fill="#231F20"></path>
  <path d="M144.142 71.2645C144.312 71.2385 144.552 71.2165 144.861 71.2015C145.174 71.1875 145.398 71.1805 145.534 71.1805C145.705 71.1805 145.94 71.1885 146.235 71.2015C146.535 71.2175 146.767 71.2385 146.935 71.2645V101.887C146.061 102.173 144.97 102.41 143.674 102.608C142.375 102.811 141.019 102.911 139.609 102.911C138.055 102.911 136.602 102.723 135.246 102.356C133.888 101.992 132.717 101.384 131.728 100.539C130.741 99.6875 129.952 98.5705 129.377 97.1875C128.798 95.8065 128.509 94.0935 128.509 92.0625C128.509 90.1985 128.764 88.5395 129.274 87.0835C129.781 85.6355 130.5 84.3995 131.427 83.3995C132.365 82.3955 133.486 81.6245 134.797 81.0915C136.114 80.5535 137.558 80.2855 139.141 80.2855C140.073 80.2855 140.997 80.3645 141.918 80.5175C142.832 80.6755 143.575 80.8495 144.142 81.0495V71.2645ZM144.142 83.6745C143.576 83.4495 142.852 83.2475 141.981 83.0585C141.103 82.8775 140.2 82.7865 139.27 82.7865C137.943 82.7865 136.791 83.0135 135.817 83.4655C134.846 83.9135 134.031 84.5455 133.382 85.3515C132.73 86.1515 132.244 87.1215 131.917 88.2505C131.593 89.3825 131.427 90.6265 131.427 91.9745C131.427 94.9155 132.134 97.0595 133.531 98.4005C134.928 99.7385 136.91 100.408 139.482 100.408C140.412 100.408 141.298 100.358 142.146 100.262C142.998 100.162 143.658 100.044 144.141 99.9045L144.142 83.6745Z" fill="#231F20"></path>
  <path d="M154.645 83.1665H151.934C151.907 83.0265 151.883 82.8545 151.87 82.6565C151.855 82.4595 151.849 82.2475 151.849 82.0225C151.849 81.7965 151.856 81.5705 151.87 81.3465C151.884 81.1245 151.907 80.9355 151.934 80.7915H157.442V102.395C157.272 102.425 157.04 102.445 156.742 102.463C156.443 102.476 156.216 102.48 156.043 102.48C155.902 102.48 155.675 102.476 155.364 102.463C155.052 102.444 154.815 102.425 154.645 102.395V83.1665ZM153.245 75.5035C153.22 75.2435 153.195 74.9345 153.182 74.5705C153.167 74.2035 153.162 73.8895 153.162 73.6355C153.162 73.4075 153.167 73.1275 153.182 72.7895C153.195 72.4515 153.219 72.1665 153.245 71.9405C153.498 71.9155 153.809 71.8905 154.18 71.8775C154.55 71.8665 154.856 71.8545 155.11 71.8545C155.334 71.8545 155.618 71.8675 155.96 71.8775C156.297 71.8905 156.578 71.9145 156.807 71.9405C156.831 72.1665 156.853 72.4515 156.868 72.7895C156.884 73.1275 156.892 73.4075 156.892 73.6355C156.892 73.8895 156.883 74.2025 156.868 74.5705C156.853 74.9335 156.832 75.2435 156.807 75.5035C156.578 75.5285 156.297 75.5525 155.96 75.5645C155.618 75.5805 155.334 75.5875 155.11 75.5875C154.856 75.5875 154.55 75.5795 154.18 75.5645C153.81 75.5525 153.498 75.5285 153.245 75.5035Z" fill="#231F20"></path>
  <path d="M178.15 99.6885C178.294 99.9695 178.428 100.352 178.56 100.834C178.685 101.315 178.773 101.708 178.828 102.02C178.127 102.27 177.318 102.482 176.42 102.652C175.515 102.823 174.512 102.912 173.406 102.912C169.881 102.912 167.197 101.94 165.361 100.007C163.527 98.0695 162.61 95.2705 162.61 91.5975C162.61 89.9895 162.832 88.4995 163.286 87.1295C163.739 85.7585 164.404 84.5665 165.274 83.5515C166.151 82.5315 167.248 81.7385 168.561 81.1565C169.874 80.5815 171.39 80.2905 173.114 80.2905C174.186 80.2905 175.215 80.3675 176.186 80.5205C177.158 80.6795 177.925 80.8525 178.491 81.0525C178.491 81.4175 178.439 81.8395 178.345 82.3235C178.248 82.8005 178.139 83.1845 178.024 83.4665C177.461 83.2665 176.751 83.0975 175.886 82.9535C175.027 82.8155 174.102 82.7455 173.115 82.7455C171.845 82.7455 170.732 82.9625 169.79 83.4015C168.843 83.8385 168.049 84.4535 167.416 85.2445C166.776 86.0345 166.309 86.9675 165.998 88.0395C165.686 89.1145 165.53 90.3035 165.53 91.5975C165.53 94.6495 166.256 96.8855 167.713 98.3125C169.168 99.7375 171.14 100.451 173.621 100.451C174.473 100.451 175.281 100.378 176.059 100.243C176.833 100.097 177.536 99.9175 178.15 99.6885Z" fill="#231F20"></path>
  <path d="M184.425 83.1665H181.712C181.685 83.0265 181.661 82.8545 181.649 82.6565C181.63 82.4595 181.622 82.2475 181.622 82.0225C181.622 81.7965 181.631 81.5705 181.649 81.3465C181.661 81.1245 181.684 80.9355 181.712 80.7915H187.218V102.395C187.05 102.425 186.815 102.445 186.52 102.463C186.225 102.476 185.99 102.48 185.818 102.48C185.679 102.48 185.456 102.476 185.145 102.463C184.832 102.444 184.59 102.425 184.425 102.395V83.1665ZM183.024 75.5035C182.995 75.2435 182.973 74.9345 182.96 74.5705C182.944 74.2035 182.937 73.8895 182.937 73.6355C182.937 73.4075 182.945 73.1275 182.96 72.7895C182.974 72.4515 182.995 72.1665 183.024 71.9405C183.276 71.9155 183.59 71.8905 183.958 71.8775C184.32 71.8665 184.637 71.8545 184.89 71.8545C185.113 71.8545 185.398 71.8675 185.739 71.8775C186.074 71.8905 186.355 71.9145 186.586 71.9405C186.612 72.1665 186.632 72.4515 186.649 72.7895C186.658 73.1275 186.664 73.4075 186.664 73.6355C186.664 73.8895 186.658 74.2025 186.649 74.5705C186.631 74.9335 186.612 75.2435 186.586 75.5035C186.356 75.5285 186.074 75.5525 185.739 75.5645C185.398 75.5805 185.113 75.5875 184.89 75.5875C184.637 75.5875 184.321 75.5795 183.958 75.5645C183.591 75.5525 183.276 75.5285 183.024 75.5035Z" fill="#231F20"></path>
  <path d="M194.592 83.1675H190.905C190.875 83.0285 190.854 82.8445 190.843 82.6155C190.826 82.3915 190.822 82.1645 190.822 81.9405C190.822 81.7135 190.827 81.5025 190.843 81.3025C190.854 81.1075 190.874 80.9355 190.905 80.7935H194.592V76.7275L197.216 74.1455H197.39V80.7935H203.231C203.26 80.9355 203.282 81.1065 203.291 81.3025C203.312 81.5025 203.319 81.7135 203.319 81.9405C203.319 82.1645 203.311 82.3915 203.291 82.6155C203.282 82.8445 203.261 83.0285 203.231 83.1675H197.39V97.2325C197.39 97.9375 197.476 98.4995 197.658 98.9025C197.845 99.3155 198.083 99.6315 198.386 99.8565C198.679 100.08 199.016 100.228 199.397 100.301C199.78 100.369 200.167 100.406 200.561 100.406C201.553 100.406 202.413 100.277 203.147 100.027C203.344 100.762 203.488 101.549 203.571 102.395C202.55 102.708 201.372 102.863 200.015 102.863C198.404 102.863 197.102 102.429 196.093 101.571C195.093 100.712 194.593 99.3035 194.593 97.3575V83.1675H194.592Z" fill="#231F20"></path>
  <path d="M214.076 102.482H213.265C213.016 102.482 212.726 102.477 212.402 102.463C212.073 102.444 211.83 102.428 211.659 102.396L203.865 80.7935C204.032 80.7665 204.275 80.7445 204.582 80.7295C204.895 80.7155 205.192 80.7125 205.477 80.7125C205.701 80.7125 205.982 80.7155 206.323 80.7295C206.661 80.7455 206.917 80.7665 207.084 80.7935L214.244 101.806L221.276 80.7935C221.445 80.7665 221.671 80.7445 221.954 80.7295C222.235 80.7155 222.49 80.7125 222.712 80.7125C222.944 80.7125 223.191 80.7155 223.48 80.7295C223.758 80.7455 223.991 80.7665 224.156 80.7935L214.67 108.792C214.161 110.346 213.437 111.434 212.505 112.058C211.577 112.677 210.475 112.988 209.204 112.988C208.612 112.988 208.015 112.925 207.404 112.819C206.795 112.707 206.294 112.593 205.896 112.48C205.896 111.606 206.111 110.817 206.535 110.109C206.757 110.19 207.098 110.285 207.551 110.382C208.006 110.482 208.514 110.53 209.075 110.53C209.893 110.53 210.551 110.335 211.048 109.936C211.545 109.54 211.973 108.806 212.338 107.736L214.076 102.482Z" fill="#231F20"></path>
  <path d="M286.278 43.3295H285.184V34.8885H282.203V33.9165H289.259V34.8885H286.278V43.3295Z" fill="#231F20"></path>
  <path d="M294.842 43.3295L291.648 34.9845H291.596C291.658 35.6465 291.685 36.4305 291.685 37.3405V43.3295H290.674V33.9165H292.322L295.305 41.6815H295.355L298.365 33.9165H300V43.3295H298.905V37.2635C298.905 36.5685 298.933 35.8125 298.995 34.9975H298.941L295.722 43.3295H294.842Z" fill="#231F20"></path>
</svg>
